<svg width="93" height="35" viewBox="0 0 93 35" fill="none" xmlns="http://www.w3.org/2000/svg">
<g clip-path="url(#clip0)">
<path d="M90.6961 23.9088C89.5445 34.5885 74.1219 34.5341 73.5641 23.764C73.4921 19.5717 73.5463 15.3612 73.5281 11.1687C73.5281 10.6267 73.6902 10.4279 74.248 10.4461C75.8138 10.4822 77.758 10.4461 79.2688 10.464V8.07725C71.0626 7.95066 74.212 9.61311 73.4743 0.0357666L71.4045 0.0357666C71.3867 7.6073 71.2966 16.2453 71.4227 23.8169C71.5666 37.4602 92.4058 37.3157 92.6757 23.9073L90.6961 23.9088Z" fill="#434345"/>
<path d="M66.6177 24.5401H68.8314C68.8132 16.7336 68.7951 7.84264 68.8492 0.0361328L66.6908 0.0361328C66.7089 3.88534 66.6908 8.80046 66.6908 12.6494H66.6188C66.6358 16.6246 66.6537 20.5825 66.6177 24.5401Z" fill="#434345"/>
<path d="M61.5067 17.9261C57.8177 25.4797 46.0485 24.4678 44.9326 15.6673L64.0442 15.6673C65.1961 1.51793 44.3748 -0.704652 42.7373 13.5526C41.1897 26.4548 60.607 29.4185 63.5051 17.9255L61.5067 17.9261ZM53.1929 5.98131C57.4579 5.89114 61.5968 9.37878 61.8308 13.4083L45.0045 13.4083C45.0227 9.70393 49.0528 6.07178 53.1929 5.98131Z" fill="#434345"/>
<path d="M31.3099 14.4566C36.4747 15.1251 40.7578 19.2443 41.0456 24.5219C41.0816 25.0458 40.9377 25.2629 40.3799 25.2808C38.9943 25.299 38.9943 25.317 38.7419 23.9979C38.0399 19.4079 33.1814 15.2156 28.6824 17.3116C27.4047 18.3055 26.6849 19.6972 24.7953 19.4264C24.1114 19.3903 23.8953 19.1553 23.8953 18.4686C23.9678 12.2881 23.9678 6.1975 23.9678 0L26.0914 0L26.0914 16.2636C26.1815 16.2997 26.2534 16.3541 26.3435 16.3902C30.5723 12.2158 34.8076 8.02944 39.0493 3.831C39.6252 4.37321 40.1111 4.80674 40.6689 5.33074C37.5365 8.38484 34.5132 11.3303 31.3099 14.4566Z" fill="#434345"/>
<path d="M21.3583 19.3538C20.9263 7.55361 3.1646 18.6671 2.12065 9.70393C1.99459 6.37902 5.4318 5.74634 8.09534 5.96252C12.2702 5.94431 16.4633 5.96252 20.6385 5.98044V3.77665C15.6536 3.83099 10.6688 3.68648 5.68394 3.83099C-1.60438 3.88533 -1.96445 14.6734 5.07202 15.4142C7.39333 15.6853 9.75208 15.5769 12.0904 15.6491C14.5919 15.848 18.9829 14.9985 19.0367 18.631C21.5742 34.7319 3.8122 36.1414 2.10281 23.8005H0.0152118C1.70676 39.6291 23.9853 36.8461 21.3583 19.3538Z" fill="#434345"/>
</g>
<defs>
<clipPath id="clip0">
<rect width="92.6758" height="34.2188" fill="white"/>
</clipPath>
</defs>
</svg>
