<svg width="175" height="32" viewBox="0 0 175 32" fill="none" xmlns="http://www.w3.org/2000/svg"><path d="M19.9597 14.6199C19.9597 14.8005 19.9597 31.6808 19.9597 31.6808H15.2753V24.966C15.2753 24.966 10.1835 29.9344 10.128 29.9886C10.0477 30.0669 9.91196 30.0669 9.83173 29.9886C9.77001 29.9283 4.68442 24.966 4.68442 24.966V31.6808H0C0 31.6808 0 14.8005 0 14.6199C0 14.4452 0.209842 14.385 0.314763 14.4874C0.407341 14.5777 9.97985 23.9182 9.97985 23.9182C9.97985 23.9182 19.5462 14.5837 19.6449 14.4874C19.7499 14.379 19.9597 14.4392 19.9597 14.6199Z" fill="white"></path><path d="M53.4789 14.126V22.232C53.4789 22.232 43.3756 14.2465 43.2769 14.1742C43.1411 14.0658 42.9374 14.1561 42.9374 14.3308C42.9374 14.5054 42.9374 31.3737 42.9374 31.3737H47.6219V23.2678C47.6219 23.2678 57.7251 31.2532 57.8239 31.3255C57.9597 31.4339 58.1633 31.3436 58.1633 31.1689C58.1633 30.9943 58.1633 14.126 58.1633 14.126H53.4789Z" fill="white"></path><path d="M31.4516 14.1323C26.4031 14.1323 22.305 18.125 22.305 23.0572C22.305 27.9894 26.3969 31.9822 31.4516 31.9822C36.5002 31.9822 40.5983 27.9894 40.5983 23.0572C40.5983 18.125 36.5002 14.1323 31.4516 14.1323ZM31.4516 27.4956C28.9397 27.4956 26.903 25.5083 26.903 23.0572C26.903 20.6062 28.9397 18.6189 31.4516 18.6189C33.9636 18.6189 36.0003 20.6062 36.0003 23.0572C36.0003 25.5083 33.9636 27.4956 31.4516 27.4956Z" fill="white"></path><path d="M74.797 14.4332H61.0956V18.8294H65.6072V31.6808H70.2854V18.8294H74.797V14.4332Z" fill="white"></path><path d="M132.861 14.4211V22.5391C132.861 22.5391 122.739 14.5416 122.641 14.4633C122.505 14.3549 122.301 14.4452 122.301 14.6199C122.301 14.8005 122.301 31.6929 122.301 31.6929H126.992V23.5749C126.992 23.5749 137.114 31.5724 137.212 31.6507C137.348 31.7591 137.552 31.6688 137.552 31.4941C137.552 31.3135 137.552 14.4211 137.552 14.4211H132.861Z" fill="white"></path><path d="M88.555 22.792C89.0303 22.3885 90.2276 21.1901 90.2276 19.2208C90.2276 17.7093 89.4129 16.2519 88.3082 15.4329C86.7652 14.3007 85.1235 14.4211 83.6423 14.4211C82.9819 14.4211 77.5568 14.4211 77.5568 14.4211V31.6929C77.5568 31.6929 83.599 31.6929 84.6174 31.6929C86.6973 31.6929 87.9132 31.193 88.9192 30.2114C89.9313 29.2238 90.4251 27.9892 90.4251 26.6703C90.4189 24.412 89.1537 23.3039 88.555 22.792ZM81.8895 17.8779H84.2162C85.1667 17.8779 85.9382 18.6307 85.9382 19.5581C85.9382 20.4855 85.1667 21.2383 84.2162 21.2383H81.8895V17.8779ZM84.2286 27.8025H81.8895V24.3458H84.2286C85.2037 24.3458 85.9999 25.1166 85.9999 26.0741C85.9999 27.0256 85.2099 27.8025 84.2286 27.8025Z" fill="white"></path><path d="M98.1565 27.2906V14.4211H93.4659V31.6929H102.674V27.2906H98.1565Z" fill="white"></path><path d="M112.606 14.5295C112.55 14.6379 104.403 31.6929 104.403 31.6929H109.483L112.785 24.6107L116.087 31.6929H121.166C121.166 31.6929 113.019 14.6439 112.964 14.5295C112.896 14.379 112.68 14.379 112.606 14.5295Z" fill="white"></path><path d="M144.939 23.057C144.939 20.5999 147.031 18.5765 149.716 18.5765C150.617 18.5765 151.462 18.7451 152.191 19.0823C152.672 19.3052 153.104 19.534 153.468 19.817V14.9993C152.234 14.4392 150.839 14.126 149.358 14.126C144.297 14.126 140.199 18.1308 140.199 23.063C140.199 28.0012 144.303 32 149.358 32C150.839 32 152.234 31.6868 153.468 31.1268V26.309C153.104 26.592 152.672 26.8209 152.191 27.0437C151.462 27.3749 150.611 27.5496 149.716 27.5496C147.031 27.5375 144.939 25.5141 144.939 23.057Z" fill="white"></path><path d="M165.057 20.1801C159.572 20.1801 155.114 15.6553 155.114 10.09C155.114 4.52471 159.572 0 165.057 0C170.541 0 175 4.52471 175 10.09C175 15.6553 170.541 20.1801 165.057 20.1801ZM165.057 0.823272C160.02 0.823272 155.925 4.97915 155.925 10.09C155.925 15.2009 160.02 19.3568 165.057 19.3568C170.093 19.3568 174.189 15.2009 174.189 10.09C174.189 4.97915 170.087 0.823272 165.057 0.823272Z" fill="white"></path><path d="M171.716 6.19101C170.794 4.56422 168.925 5.59826 167.939 5.02526C166.952 4.44567 166.9 2.29199 165.05 2.29199C163.201 2.29199 163.155 4.44567 162.162 5.02526C161.176 5.60484 159.313 4.57081 158.385 6.19101C157.463 7.8178 159.274 8.93745 159.274 10.0966C159.274 11.2558 157.457 12.3754 158.385 13.9956C159.306 15.6224 161.176 14.5884 162.162 15.1614C163.149 15.741 163.201 17.8947 165.05 17.8947C166.9 17.8947 166.946 15.741 167.939 15.1614C168.925 14.5818 170.788 15.6158 171.716 13.9956C172.638 12.3689 170.827 11.2492 170.827 10.0966C170.827 8.94404 172.644 7.81121 171.716 6.19101Z" fill="white"></path></svg>