<svg width="164" height="24" viewBox="0 0 164 24" fill="none" xmlns="http://www.w3.org/2000/svg">
<path d="M121.491 20.2542C124.694 20.2542 127.289 17.6699 127.289 14.4819C127.289 11.2939 124.694 8.70957 121.491 8.70957C118.289 8.70957 115.693 11.2939 115.693 14.4819C115.693 17.6699 118.289 20.2542 121.491 20.2542Z" fill="#FFFF31"/>
<path d="M17.6711 6.97153L11.8578 22.5336H7.64496L1.79004 6.97153H6.33924L9.75178 17.6654L13.1635 6.97153H17.6711Z" fill="#1A1A1A"/>
<path d="M30.9406 9.94861V17.9588C30.9406 18.8816 31.1105 19.0076 31.8674 19.0076H32.9624V22.5302H31.8674C27.1491 22.5302 26.896 20.9782 26.896 17.9588V9.94861H24.3687V6.88779H26.896V3.99359H30.9406V6.88779H33.4679V9.94861H30.9406Z" fill="#1A1A1A"/>
<path d="M48.506 12.9299V22.4921H44.5463V19.8897C41.2604 23.7066 34.0972 23.5806 34.0972 18.2126C34.0972 11.2088 44.5463 14.8989 44.5463 12.0478C44.5463 10.2023 43.0299 9.82513 41.8924 9.82513C40.9239 9.82513 38.8596 10.0789 38.4807 12.4664L34.7309 11.6283C35.2406 8.02112 38.8596 6.89202 41.8499 6.93093C45.0943 7.01635 48.506 8.35858 48.506 12.9299ZM44.5463 14.9428V14.6891C42.7351 15.863 38.0593 14.5631 38.0593 18.2532C38.0593 21.3596 44.5463 21.4434 44.5463 14.9428Z" fill="#1A1A1A"/>
<path d="M72.3062 13.8907V22.5302H68.3049V13.8907C68.3049 11.2908 68.135 9.52911 66.4088 9.52911C65.3138 9.52911 63.0387 10.1211 63.0387 17.1207V22.5336H59.0375V13.8907C59.0375 11.2908 58.8676 9.52911 57.1413 9.52911C56.0463 9.52911 53.7713 10.1211 53.7713 17.1207V22.5336H49.77V7.01297H53.7713V9.86488C54.7822 7.89425 56.3411 6.97153 58.2789 6.97153C61.0594 6.97153 62.2385 8.52266 62.744 10.4941C63.7133 8.104 65.4403 6.97153 67.5463 6.97153C71.8432 6.97153 72.3062 10.6616 72.3062 13.8907Z" fill="#1A1A1A"/>
<path d="M93.4951 13.8907V22.5302H89.4964V13.8907C89.4964 11.2908 89.2416 9.48768 87.517 9.48768C86.422 9.48768 83.5149 10.0746 83.5149 17.0784V22.5302H79.5137V6.96815H83.5149V10.3233C84.7366 8.01605 86.5902 6.96815 88.6546 6.96815C92.9897 6.97153 93.4951 10.6616 93.4951 13.8907Z" fill="#1A1A1A"/>
<path d="M23.2737 22.5302V6.96815H19.23V22.5302H23.2737Z" fill="#1A1A1A"/>
<path d="M23.4841 3.9513C23.4841 2.72376 22.4846 1.72864 21.2516 1.72864C20.0186 1.72864 19.019 2.72376 19.019 3.9513C19.019 5.17885 20.0186 6.17397 21.2516 6.17397C22.4846 6.17397 23.4841 5.17885 23.4841 3.9513Z" fill="#1A1A1A"/>
<path d="M77.9931 22.5302V6.96815H73.9502V22.5302H77.9931Z" fill="#1A1A1A"/>
<path d="M78.2039 3.90986C78.2039 2.68232 77.2043 1.68719 75.9713 1.68719C74.7383 1.68719 73.7388 2.68232 73.7388 3.90986C73.7388 5.13741 74.7383 6.13253 75.9713 6.13253C77.2043 6.13253 78.2039 5.13741 78.2039 3.90986Z" fill="#1A1A1A"/>
<path d="M102.257 6.9284C98.2553 6.88696 94.5488 9.44539 94.5488 14.7297C94.5488 20.014 98.2553 22.5716 102.257 22.5302C105.921 22.4879 108.407 20.8108 109.586 18.0434H105.609C104.722 18.9509 103.578 19.3121 102.296 19.3425C100.737 19.3425 99.0097 18.6295 98.6308 15.9036H109.92C110.005 15.5264 110.005 15.1069 110.005 14.7297C110.008 9.44539 106.26 6.97069 102.257 6.9284ZM98.6767 13.094C99.1864 10.8713 100.783 9.99006 102.257 10.0323C103.774 10.0738 105.333 10.9128 105.838 13.094H98.6767Z" fill="#1A1A1A"/>
<path d="M132.356 17.9791L136.316 17.3922C136.57 18.9019 138.38 19.4897 139.475 19.4897C140.612 19.4897 142.55 19.2359 142.55 17.4345C142.55 13.9119 132.82 18.3149 132.82 11.5632C132.82 7.20158 137.874 6.99183 139.475 6.99183C140.991 6.99183 145.372 7.24556 146.299 10.7242L142.55 11.5209C142.21 9.92747 140.528 9.63399 139.602 9.63399C138.675 9.63399 136.737 9.84374 136.737 11.6046C136.737 15.0858 146.468 10.6405 146.468 17.4759C146.468 22.0896 141.116 22.4659 139.475 22.4659C138.004 22.383 133.156 22.0041 132.356 17.9791Z" fill="#1A1A1A"/>
<path d="M155.35 6.9284C151.348 6.88696 147.642 9.44539 147.642 14.7297C147.642 20.014 151.348 22.5716 155.35 22.5302C159.015 22.4879 161.5 20.8108 162.68 18.0434H158.702C157.815 18.9509 156.67 19.3121 155.388 19.3425C153.83 19.3425 152.102 18.6295 151.724 15.9036H163.013C163.098 15.5264 163.098 15.1069 163.098 14.7297C163.101 9.44539 159.352 6.97069 155.35 6.9284ZM151.767 13.094C152.277 10.8713 153.874 9.99006 155.348 10.0323C156.864 10.0738 158.423 10.9128 158.928 13.094H151.767Z" fill="#1A1A1A"/>
</svg>
